<svg width="24" height="24" viewBox="0 0 24 24" fill="none" xmlns="http://www.w3.org/2000/svg">
<path d="M12 2C13.8757 2 15.4513 2.09907 16.75 2.3877C18.06 2.67885 19.1488 3.1761 19.9863 4.01367C20.8239 4.85124 21.3212 5.93996 21.6123 7.25C21.9009 8.5487 22 10.1243 22 12C22 13.8757 21.9009 15.4513 21.6123 16.75C21.3212 18.06 20.8239 19.1488 19.9863 19.9863C19.1488 20.8239 18.06 21.3212 16.75 21.6123C15.4513 21.9009 13.8757 22 12 22C10.1243 22 8.5487 21.9009 7.25 21.6123C5.93996 21.3212 4.85124 20.8239 4.01367 19.9863C3.1761 19.1488 2.67885 18.06 2.3877 16.75C2.09907 15.4513 2 13.8757 2 12C2 10.1243 2.09907 8.5487 2.3877 7.25C2.67885 5.93996 3.1761 4.85124 4.01367 4.01367C4.85124 3.1761 5.93996 2.67885 7.25 2.3877C8.5487 2.09907 10.1243 2 12 2ZM11.707 8.29297C11.3165 7.90244 10.6835 7.90244 10.293 8.29297C9.90244 8.68349 9.90244 9.31651 10.293 9.70703L12.5859 12L10.293 14.293C9.90244 14.6835 9.90244 15.3165 10.293 15.707C10.6835 16.0976 11.3165 16.0976 11.707 15.707L14.4229 12.9912C14.9703 12.4437 14.9703 11.5563 14.4229 11.0088L11.707 8.29297Z" fill="#F3F2FF"/>
</svg>
