<svg width="32" height="32" viewBox="0 0 32 32" fill="none" xmlns="http://www.w3.org/2000/svg">
<path d="M13.9466 12.4C14.2666 12.2933 14.5733 12.1733 14.88 12.0533C13.7466 9.89333 12.4666 7.81333 11.04 5.82666C7.99996 7.31999 5.71996 10.12 4.95996 13.48C7.99996 13.72 11.0799 13.3733 13.9466 12.4Z" fill="#4D5566"/>
<path d="M13.226 17.7335C14.3994 17.1335 15.5994 16.6535 16.8527 16.2802C16.7994 16.1202 16.7327 15.9602 16.666 15.8135C16.386 15.1468 16.0793 14.4935 15.7727 13.8535C15.386 14.0002 14.9994 14.1602 14.586 14.3068C12.066 15.1468 9.37267 15.5868 6.69267 15.5868C6.026 15.5868 5.35933 15.5468 4.69267 15.4935C4.67933 15.6668 4.66602 15.8268 4.66602 16.0002C4.66602 18.5735 5.546 20.9468 6.986 22.8535C8.73267 20.7602 10.8527 18.9868 13.226 17.7335Z" fill="#4D5566"/>
<path d="M22.7733 6.93317C20.8799 5.51984 18.5333 4.6665 16 4.6665C14.9466 4.6665 13.9333 4.8265 12.96 5.09317C14.3466 7.0665 15.6 9.11984 16.72 11.2532C19.3333 9.95984 21.3466 8.3465 22.7733 6.93317Z" fill="#4D5566"/>
<path d="M14.1473 19.507C11.454 20.9337 9.56065 22.8003 8.33398 24.3203C10.3473 26.187 13.0407 27.3337 16.0007 27.3337C17.374 27.3337 18.6806 27.0803 19.9073 26.627C19.374 23.747 18.6007 20.9203 17.6007 18.187C16.4007 18.5203 15.254 18.947 14.1473 19.507Z" fill="#4D5566"/>
<path d="M19.5605 17.7201C20.5072 20.3334 21.2405 23.0134 21.7605 25.7468C24.5739 24.0801 26.5872 21.2401 27.1605 17.9068C25.5339 17.5468 22.7605 17.1868 19.5605 17.7201Z" fill="#4D5566"/>
<path d="M17.5996 13.0404C17.9196 13.7071 18.2263 14.3604 18.5196 15.0271C18.6263 15.2938 18.7196 15.5604 18.8263 15.8271C22.3463 15.1604 25.4396 15.5071 27.3329 15.8938C27.3063 12.9471 26.1329 10.2671 24.2529 8.26709C22.7063 9.81376 20.5063 11.6138 17.5996 13.0404Z" fill="#4D5566"/>
</svg>
