<svg width="32" height="32" viewBox="0 0 32 32" fill="none" xmlns="http://www.w3.org/2000/svg">
<path d="M15.9993 2.6665C8.65268 2.6665 2.66602 8.65317 2.66602 15.9998C2.66602 23.3465 8.65268 29.3332 15.9993 29.3332C23.346 29.3332 29.3327 23.3465 29.3327 15.9998C29.3327 8.65317 23.346 2.6665 15.9993 2.6665ZM13.9727 27.9732C13.8527 28.4132 13.4527 28.7065 13.0127 28.7065C12.9194 28.7065 12.8393 28.7065 12.746 28.6798C12.2127 28.5332 11.8927 27.9865 12.0393 27.4532L12.2393 26.6932L15.0393 16.1865C15.1727 15.6665 15.7194 15.3332 16.2527 15.4798C16.786 15.6265 17.106 16.1732 16.9727 16.7065L15.946 20.5865C16.0527 20.5865 16.1727 20.6265 16.2793 20.6665C16.626 20.8132 16.9727 20.8932 17.3193 20.8932H17.3727C19.1327 20.8932 21.066 18.9865 21.4527 16.8665C21.6127 15.9198 21.4927 15.0398 21.0927 14.2532C20.1594 12.4132 17.9593 11.5865 16.3193 11.5865C14.3993 11.5865 12.8393 12.1865 11.826 13.3065C10.9993 14.2132 10.6127 15.1865 10.6927 16.2132C10.7727 17.3465 11.4127 18.1732 11.786 18.5598C12.1593 18.9598 12.146 19.5865 11.746 19.9732C11.346 20.3598 10.7193 20.3465 10.3327 19.9465C9.77268 19.3598 8.826 18.1198 8.69267 16.3465C8.61267 15.2665 8.83935 13.6265 10.3327 11.9598C11.7193 10.4265 13.8527 9.5865 16.3193 9.5865C18.626 9.5865 21.546 10.7465 22.8794 13.3332C23.2927 14.1465 23.7193 15.4798 23.4127 17.2132C22.9327 19.9865 20.386 22.8932 17.3727 22.8932H17.266C16.666 22.8798 16.066 22.7465 15.4793 22.4932C15.466 22.4798 15.4527 22.4798 15.4393 22.4665L14.186 27.1865L13.9727 27.9732Z" fill="#4D5566"/>
</svg>
